# xmcd
#
# Track frame offsets: 
#        150
#        13675
#        23800
#        37450
#        50800
#        68350
#        83500
#        101575
#        119500
#        133225
#        145825
#        161125
#        172525
#        187600
#
# Disc length: 2655 seconds
#
# Revision: 2
# Processed by: cddbd v1.5.1PL0 Copyright (c) Steve Scherf et al.
# Submitted via: ExactAudioCopy v0.95a5
#
DISCID=b50a5d0e
DTITLE=Mirek Hoffmann - Romantika starych kovboju
DYEAR=1900
DGENRE=Country
TTITLE0=Stary lasky
TTITLE1=Bracero
TTITLE2=Tom Dooley
TTITLE3=U dvou borovic
TTITLE4=Zlaty klic
TTITLE5=Lasko me pribejva kil
TTITLE6=Prcek Joe
TTITLE7=Cerna barva smuly
TTITLE8=Dal to tahnu uz par patku
TTITLE9=Tam za divokou rekou
TTITLE10=Bam - Bam - Bam
TTITLE11=Smireni
TTITLE12=Kam te zene proud
TTITLE13=Vsechno ma svuj konec
EXTD=
EXTT0=
EXTT1=
EXTT2=
EXTT3=
EXTT4=
EXTT5=
EXTT6=
EXTT7=
EXTT8=
EXTT9=
EXTT10=
EXTT11=
EXTT12=
EXTT13=
PLAYORDER=
